<?xml version="1.0" encoding="UTF-8"?>
<svg width="153px" height="53px" viewBox="0 0 153 53" version="1.1" xmlns="http://www.w3.org/2000/svg" xmlns:xlink="http://www.w3.org/1999/xlink">
    <!-- Generator: Sketch 52.6 (67491) - http://www.bohemiancoding.com/sketch -->
    <title>simplified-chinese-cn 153x53</title>
    <desc>Created with Sketch.</desc>
    <defs>
        <polygon id="path-1" points="0.241285496 0.0492349727 150.417866 0.0492349727 150.417866 21.3056814 0.241285496 21.3056814"></polygon>
        <polygon id="path-3" points="0 52.950765 151.868305 52.950765 151.868305 0.289617486 0 0.289617486"></polygon>
    </defs>
    <g id="simplified-chinese-cn-153x53" stroke="none" stroke-width="1" fill="none" fill-rule="evenodd">
        <g id="Group-6">
            <g id="Group-3" transform="translate(1.450382, 0.240383)">
                <mask id="mask-2" fill="white">
                    <use xlink:href="#path-1"></use>
                </mask>
                <g id="Clip-2"></g>
                <path d="M75.8984153,20.9010858 L70.2918198,11.1971623 L75.5523542,5.47779617 L70.2039267,5.47779617 L64.7342473,11.6176869 L64.7342473,0.0494956284 L60.0184763,0.0494956284 L60.0184763,20.9005066 L64.7342473,20.9005066 L64.7342473,17.1493809 L66.9936519,14.7351295 L70.5311328,20.9010858 L75.8984153,20.9010858 Z M148.539041,18.9855557 L148.539041,19.5227962 L148.861896,19.5227962 C149.069011,19.5227962 149.184751,19.4564738 149.184751,19.2499765 C149.184751,19.0848945 149.093957,18.9855557 148.903377,18.9855557 L148.539041,18.9855557 Z M148.257957,18.7463317 L148.903377,18.7463317 C149.275545,18.7463317 149.474247,18.9363208 149.474247,19.2334683 C149.474247,19.4978891 149.358507,19.6464628 149.168217,19.7208945 L149.466125,20.2662443 L149.151682,20.2662443 L148.878431,19.7623098 L148.539041,19.7623098 L148.539041,20.2662443 L148.257957,20.2662443 L148.257957,18.7463317 Z M148.853484,20.8776268 C149.623347,20.8776268 150.161148,20.414818 150.161148,19.5393044 C150.161148,18.6719 149.623347,18.2090913 148.853484,18.2090913 C148.075499,18.2090913 147.537988,18.6719 147.537988,19.5393044 C147.537988,20.414818 148.075499,20.8776268 148.853484,20.8776268 Z M148.853484,17.9939055 C149.838293,17.9939055 150.417866,18.6139765 150.417866,19.5393044 C150.417866,20.4646322 149.838293,21.0844137 148.853484,21.0844137 C147.860843,21.0844137 147.289682,20.4646322 147.289682,19.5393044 C147.289682,18.6139765 147.860843,17.9939055 148.853484,17.9939055 Z M145.954171,20.9010858 L140.347866,11.1971623 L145.60811,5.47779617 L140.320889,5.47779617 L134.790003,11.6176869 L134.790003,0.0494956284 L130.074232,0.0494956284 L130.074232,20.9005066 L134.790003,20.9005066 L134.790003,17.1493809 L137.049408,14.7351295 L140.586889,20.9010858 L145.954171,20.9010858 Z M35.985942,15.7415503 C35.985942,17.1557525 34.6170718,18.0889 33.0582015,18.0889 C31.5843237,18.0889 30.8646443,17.3327087 30.8646443,16.2869 C30.8646443,15.1817197 31.6780183,14.3771623 33.3175298,14.3771623 C34.3319267,14.3771623 35.2445069,14.5506432 35.985942,14.722676 L35.985942,15.7415503 Z M42.4204153,20.6357962 L42.4204153,17.3674628 C42.2191023,17.4193044 41.913942,17.4789656 41.6186443,17.4789656 C40.9952702,17.4789656 40.7005527,17.1713918 40.7005527,16.5962115 L40.7005527,11.1907907 C40.7005527,7.14715137 37.9863084,4.98602568 33.4880947,4.98602568 C30.5699267,4.98602568 28.0540947,6.04979071 26.4839115,7.4408235 L29.1105527,10.3952115 C30.160629,9.48204754 31.559087,8.88717322 32.9018504,8.88717322 C34.9808275,8.88717322 35.9853618,9.92603115 35.9853618,11.6492552 L35.9853618,12.1549273 C34.9877893,11.9142552 33.7613466,11.6898016 32.2422168,11.6898016 C28.4419267,11.6898016 25.9835298,13.5028071 25.9835298,16.5368399 C25.9835298,19.6331404 28.0355298,21.2622388 31.2234687,21.2622388 C33.4103542,21.2622388 35.339942,20.3710858 36.3711634,19.2129055 C36.989026,20.7345557 38.3097435,21.1452333 39.6252397,21.1452333 C40.4908275,21.1452333 41.5249496,20.9975284 42.4204153,20.6357962 Z M82.0883542,9.7513918 L85.7389649,9.75110219 C88.0105527,9.75110219 89.1012397,8.48199836 89.1012397,6.95745191 C89.1012397,5.16587814 88.0531939,4.18436448 85.7389649,4.18436448 L82.0883542,4.18407486 L82.0883542,9.7513918 Z M89.0896366,20.9005066 L85.127774,13.8853918 L82.0883542,13.8853918 L82.0883542,20.9005066 L77.1764916,20.9005066 L77.1764916,0.0494956284 L86.0156977,0.0494956284 C90.7976061,0.0494956284 94.1465374,2.32357213 94.1465374,6.81988361 C94.1465374,9.69462678 92.7158809,11.7002279 90.196858,12.9568781 L94.7765832,20.9005066 L89.0896366,20.9005066 Z M128.959469,9.18692732 C127.647453,6.46307486 125.208782,4.94634809 121.523072,4.94634809 C117.161774,4.94634809 113.273591,7.68236448 113.273591,13.0874956 C113.273591,18.3715667 116.695911,21.2938071 121.457515,21.2938071 C124.803545,21.2938071 127.616415,19.9601186 128.929881,17.0816104 L125.091881,15.1026541 C124.40324,16.389135 123.315163,17.1850038 121.616186,17.1850038 C119.42524,17.1850038 117.978339,15.6097743 117.978339,13.0808344 C117.978339,10.5443645 119.611469,9.01141913 121.583698,9.01141913 C123.108629,9.01141913 124.28953,9.71605847 124.997606,11.2107743 L128.959469,9.18692732 Z M58.8425069,9.18692732 C57.5307817,6.46307486 55.0915298,4.94634809 51.4058198,4.94634809 C47.0448122,4.94634809 43.1563389,7.68236448 43.1563389,13.0874956 C43.1563389,18.3715667 46.5789496,21.2938071 51.3405527,21.2938071 C54.6868733,21.2938071 57.4994534,19.9601186 58.8129191,17.0816104 L54.9749191,15.1026541 C54.2865679,16.389135 53.1982015,17.1850038 51.4995145,17.1850038 C49.3082779,17.1850038 47.8613771,15.6097743 47.8613771,13.0808344 C47.8613771,10.5443645 49.4947969,9.01141913 51.4667359,9.01141913 C52.9916672,9.01141913 54.1725679,9.71605847 54.8806443,11.2107743 L58.8425069,9.18692732 Z M12.2185374,14.5888727 C12.2185374,15.9570257 11.2757893,16.8588945 9.48398779,16.8588945 L5.19869008,16.8591842 L5.19869008,12.3185612 L9.48398779,12.3185612 C11.1931176,12.3185612 12.2185374,13.1859656 12.2185374,14.5888727 Z M11.7712397,6.20386721 C11.7712397,7.61922787 10.8638809,8.44261038 9.13473588,8.44261038 L5.20072061,8.44261038 L5.20072061,4.09226612 L9.13473588,4.09255574 C10.7220336,4.09255574 11.7712397,4.79545738 11.7712397,6.20386721 Z M17.4370107,14.8921022 C17.4370107,12.5519929 16.222171,10.7442005 14.0436977,9.95093825 C16.1070107,8.83475246 16.8336519,7.33685082 16.8336519,5.59480164 C16.8336519,2.55208033 14.626171,0.0489163934 9.7044458,0.0489163934 L0.241285496,0.0494956284 L0.241285496,20.9005066 L10.1056214,20.9005066 C15.0618656,20.9005066 17.4370107,18.4367306 17.4370107,14.8921022 Z M107.11556,13.0985011 C107.11556,15.7317033 105.357988,17.2154137 103.298156,17.2154137 C101.238324,17.2154137 99.4810412,15.7317033 99.4810412,13.0985011 C99.4810412,10.4357579 101.236293,9.0143153 103.298156,9.0143153 C105.360308,9.0143153 107.11556,10.4354683 107.11556,13.0985011 Z M111.808415,13.0976322 C111.808415,8.07247923 107.900797,4.92375792 103.298156,4.92375792 C98.6946443,4.92375792 94.7878962,8.07132077 94.7878962,13.0976322 C94.7878962,18.1262607 98.693484,21.3056814 103.298156,21.3056814 C107.901957,21.3056814 111.808415,18.1253918 111.808415,13.0976322 Z M19.3425221,20.9005066 L24.1018046,20.9005066 L24.1018046,0.0494956284 L19.3425221,0.0494956284 L19.3425221,20.9005066 Z" id="Fill-1" fill="#000000" mask="url(#mask-2)"></path>
            </g>
            <mask id="mask-4" fill="white">
                <use xlink:href="#path-3"></use>
            </mask>
            <g id="Clip-5"></g>
            <path d="M60.9920305,44.0192514 L77.649374,44.0192514 L77.649374,41.4086393 L60.9920305,41.4086393 L60.9920305,44.0192514 Z M68.6561374,37.9103497 L69.9957099,37.9103497 L69.9957099,35.3715628 L68.6561374,35.3715628 L68.6561374,37.9103497 Z M72.7911756,37.9103497 L74.0750534,37.9103497 L74.0750534,35.3715628 L72.7911756,35.3715628 L72.7911756,37.9103497 Z M64.5741832,37.9103497 L65.8574809,37.9103497 L65.8574809,35.3715628 L64.5741832,35.3715628 L64.5741832,37.9103497 Z M67.5648702,32.9749781 L61.4706565,32.9749781 L61.4706565,40.2915847 L77.1750992,40.2915847 L77.1750992,32.9749781 L71.1565954,32.9749781 L71.1565954,31.6653279 L77.649374,31.6653279 L77.649374,29.116694 L71.1565954,29.116694 L71.1565954,27.4722459 L67.5573282,27.4722459 L67.5573282,29.116694 L60.9882595,29.116694 L60.9882595,31.6653279 L67.5648702,31.6653279 L67.5648702,32.9749781 Z M57.4873282,34.8328743 C56.7270382,37.4738962 55.1287176,40.3561694 53.2498931,42.7515956 L55.9716794,44.0815191 L55.9716794,52.6959016 L59.2431603,52.6959016 L59.2431603,39.5125137 C59.876687,38.3103115 60.3503817,37.1327268 60.6381374,35.9435574 L57.4873282,34.8328743 Z M60.3985344,28.3668743 L57.0818015,27.5481257 C56.5149924,29.4471475 55.4475115,31.2161311 54.1323053,32.5721202 L57.0371298,34.1800765 C58.3914962,32.8423333 59.8169313,30.5033825 60.3985344,28.3668743 Z M13.8087939,40.6588197 L13.8087939,33.1293443 L10.138458,33.1293443 L10.138458,40.3031694 C10.138458,43.251765 10.1100305,45.1171913 7.1170229,46.9339617 C5.10650382,48.1544098 2.2518626,49.111306 0,49.7111038 L1.44254962,52.6287104 C4.01958779,51.9284153 7.20259542,50.8481421 9.88087023,49.0820546 C10.7328244,48.5199071 11.4130534,47.9134481 11.9572366,47.2447213 C14.8965802,48.7333552 18.8155115,50.9411093 21.682916,52.950765 L23.4987939,50.2292295 C20.9800611,48.3105137 16.6770687,45.8670109 13.4029771,44.3453607 C13.687542,43.2688525 13.8087939,42.0550656 13.8087939,40.6588197 Z M40.6283817,37.1480765 L45.7522901,37.1480765 C44.6763969,38.2555738 43.4255878,39.372918 42.168687,40.2811585 L44.0678168,42.2997923 L40.6283817,42.2997923 L40.6283817,37.1480765 Z M37.0436183,42.2997923 L33.5705344,42.2997923 L35.3910534,40.2252623 C34.2371298,39.1583115 32.9677557,38.0707978 31.8062901,37.1480765 L37.0436183,37.1480765 L37.0436183,42.2997923 Z M50.0805191,45.1838033 L50.0805191,42.2997923 L44.8974351,42.2997923 C46.2338168,41.3009016 47.4080458,40.2070164 48.4035878,39.0221913 L46.5340458,37.1480765 L49.8913893,37.1480765 L49.8913893,34.263776 L40.6283817,34.263776 L40.6283817,32.7902022 L37.0436183,32.7902022 L37.0436183,34.263776 L27.800916,34.263776 L27.800916,37.1480765 L30.9868244,37.1480765 L29.1935725,39.2773443 C30.3840458,40.2197596 31.54,41.1888197 32.7832672,42.2997923 L27.6112061,42.2997923 L27.6112061,45.1838033 L34.5802901,45.1838033 C32.6628855,46.7416557 29.4938015,48.4761749 26.7870992,49.413377 L28.0735878,52.2194809 C30.7892824,51.3998634 34.6838473,49.2456885 37.0795878,46.9096339 L37.0795878,52.6959016 L40.5924122,52.6959016 L40.5924122,46.889071 C42.9881527,49.2335246 46.8975115,51.3975464 49.6213282,52.2194809 L50.9075267,49.413377 C48.2005344,48.4761749 45.0323206,46.7416557 43.114916,45.1838033 L50.0805191,45.1838033 Z M31.7561069,33.1617814 L35.2935878,33.1617814 L35.2935878,31.5103825 L42.3984275,31.5103825 L42.3984275,33.1617814 L45.9402595,33.1617814 L45.9402595,31.5103825 L50.7819237,31.5103825 L50.7819237,28.7711803 L45.9402595,28.7711803 L45.9402595,27.4592131 L42.3984275,27.4592131 L42.3984275,28.7711803 L35.2935878,28.7711803 L35.2935878,27.4592131 L31.7561069,27.4592131 L31.7561069,28.7711803 L26.9098015,28.7711803 L26.9098015,31.5103825 L31.7561069,31.5103825 L31.7561069,33.1617814 Z M59.7406412,51.2402842 L63.1037863,51.6605191 C63.3523817,50.9283661 64.0607481,49.0003825 64.5866565,45.7717268 L61.3192366,45.3512022 C60.8658473,48.1312404 60.0223053,50.4331202 59.7406412,51.2402842 Z M76.6462901,45.3022568 L73.4041069,45.7717268 C73.822687,47.723459 74.6003817,50.0401093 75.3879389,51.6605191 L78.751374,51.2402842 C77.8898473,49.4513169 77.1347786,47.2867158 76.6462901,45.3022568 Z M68.4295878,48.4324426 L68.4295878,45.0016339 L65.0887786,45.0016339 L65.0887786,49.0979836 C65.0887786,51.3894372 66.5870229,52.6959016 69.4889466,52.6959016 L73.5590076,52.6959016 L74.1263969,50.144082 L71.0330229,50.144082 C69.3383969,50.144082 68.4295878,49.8582295 68.4295878,48.4324426 Z M5.39687023,45.1638197 L5.39687023,31.446377 L18.5242748,31.446377 L18.5242748,45.1638197 L22.2317405,45.1638197 L22.2317405,28.2875191 L1.69143511,28.2875191 L1.70158779,45.1638197 L5.39687023,45.1638197 Z M73.6585038,48.9534645 C73.054855,47.6904426 72.6171298,46.2881148 72.2730992,44.7571967 L69.0854504,45.1777213 C69.3479695,46.7610601 69.8573435,48.3606175 70.3174046,49.3745683 L73.6585038,48.9534645 Z" id="Fill-4" fill="#000000" mask="url(#mask-4)"></path>
        </g>
    </g>
</svg>